<mxfile host="65bd71144e">
    <diagram id="YUpo9durrmyvFdrOq3a2" name="Page-1">
        <mxGraphModel dx="1857" dy="470" grid="1" gridSize="10" guides="1" tooltips="1" connect="1" arrows="1" fold="1" page="1" pageScale="1" pageWidth="827" pageHeight="1169" math="0" shadow="0">
            <root>
                <mxCell id="0"/>
                <mxCell id="1" parent="0"/>
                <mxCell id="23" value="" style="rounded=0;whiteSpace=wrap;html=1;" vertex="1" parent="1">
                    <mxGeometry x="60" y="100" width="440" height="420" as="geometry"/>
                </mxCell>
                <mxCell id="26" style="edgeStyle=none;html=1;exitX=0.5;exitY=0.5;exitDx=0;exitDy=0;exitPerimeter=0;entryX=0;entryY=0.5;entryDx=0;entryDy=0;endArrow=none;endFill=0;" edge="1" parent="1" source="15" target="21">
                    <mxGeometry relative="1" as="geometry"/>
                </mxCell>
                <mxCell id="15" value="Actor" style="shape=umlActor;verticalLabelPosition=bottom;verticalAlign=top;html=1;fontStyle=1" vertex="1" parent="1">
                    <mxGeometry x="-40" y="260" width="30" height="60" as="geometry"/>
                </mxCell>
                <mxCell id="16" value="&lt;span style=&quot;border-bottom: 1px dotted&quot;&gt;Resta&lt;/span&gt;" style="ellipse;whiteSpace=wrap;html=1;align=center;" vertex="1" parent="1">
                    <mxGeometry x="364" y="230" width="100" height="40" as="geometry"/>
                </mxCell>
                <mxCell id="17" value="&lt;span style=&quot;border-bottom: 1px dotted&quot;&gt;Producto&lt;/span&gt;" style="ellipse;whiteSpace=wrap;html=1;align=center;" vertex="1" parent="1">
                    <mxGeometry x="364" y="320" width="100" height="40" as="geometry"/>
                </mxCell>
                <mxCell id="18" value="&lt;span style=&quot;border-bottom: 1px dotted&quot;&gt;Cociente&lt;/span&gt;" style="ellipse;whiteSpace=wrap;html=1;align=center;" vertex="1" parent="1">
                    <mxGeometry x="364" y="400" width="100" height="40" as="geometry"/>
                </mxCell>
                <mxCell id="19" value="&lt;span style=&quot;border-bottom: 1px dotted&quot;&gt;Suma&lt;/span&gt;" style="ellipse;whiteSpace=wrap;html=1;align=center;" vertex="1" parent="1">
                    <mxGeometry x="364" y="150" width="100" height="40" as="geometry"/>
                </mxCell>
                <mxCell id="32" style="edgeStyle=none;html=1;exitX=0.5;exitY=0;exitDx=0;exitDy=0;entryX=0.5;entryY=1;entryDx=0;entryDy=0;dashed=1;endArrow=classic;endFill=1;" edge="1" parent="1" source="20" target="21">
                    <mxGeometry relative="1" as="geometry"/>
                </mxCell>
                <mxCell id="20" value="&lt;span style=&quot;border-bottom: 1px dotted&quot;&gt;Borrar&lt;/span&gt;" style="ellipse;whiteSpace=wrap;html=1;align=center;" vertex="1" parent="1">
                    <mxGeometry x="170" y="400" width="100" height="40" as="geometry"/>
                </mxCell>
                <mxCell id="28" style="edgeStyle=none;html=1;exitX=1;exitY=0.5;exitDx=0;exitDy=0;entryX=0;entryY=0.5;entryDx=0;entryDy=0;endArrow=classic;endFill=1;dashed=1;" edge="1" parent="1" source="21" target="16">
                    <mxGeometry relative="1" as="geometry"/>
                </mxCell>
                <mxCell id="29" style="edgeStyle=none;html=1;exitX=1;exitY=0.5;exitDx=0;exitDy=0;entryX=0;entryY=0.5;entryDx=0;entryDy=0;endArrow=classic;endFill=1;dashed=1;" edge="1" parent="1" source="21" target="17">
                    <mxGeometry relative="1" as="geometry"/>
                </mxCell>
                <mxCell id="30" style="edgeStyle=none;html=1;exitX=1;exitY=0.5;exitDx=0;exitDy=0;entryX=0;entryY=0.5;entryDx=0;entryDy=0;endArrow=classic;endFill=1;dashed=1;" edge="1" parent="1" source="21" target="18">
                    <mxGeometry relative="1" as="geometry"/>
                </mxCell>
                <mxCell id="31" style="edgeStyle=none;html=1;exitX=1;exitY=0.5;exitDx=0;exitDy=0;entryX=0;entryY=0.5;entryDx=0;entryDy=0;endArrow=classic;endFill=1;dashed=1;" edge="1" parent="1" source="21" target="19">
                    <mxGeometry relative="1" as="geometry"/>
                </mxCell>
                <mxCell id="21" value="&lt;span style=&quot;border-bottom: 1px dotted&quot;&gt;Introducir numeros&lt;/span&gt;" style="ellipse;whiteSpace=wrap;html=1;align=center;" vertex="1" parent="1">
                    <mxGeometry x="170" y="270" width="100" height="40" as="geometry"/>
                </mxCell>
                <mxCell id="24" value="Calculadora" style="text;html=1;align=center;verticalAlign=middle;resizable=0;points=[];autosize=1;strokeColor=none;fillColor=none;" vertex="1" parent="1">
                    <mxGeometry x="70" y="110" width="80" height="20" as="geometry"/>
                </mxCell>
                <mxCell id="33" value="&amp;lt;in&amp;gt;" style="text;html=1;align=center;verticalAlign=middle;resizable=0;points=[];autosize=1;strokeColor=none;fillColor=none;" vertex="1" parent="1">
                    <mxGeometry x="320" y="160" width="40" height="20" as="geometry"/>
                </mxCell>
                <mxCell id="34" value="&amp;lt;ex&amp;gt;" style="text;html=1;align=center;verticalAlign=middle;resizable=0;points=[];autosize=1;strokeColor=none;fillColor=none;" vertex="1" parent="1">
                    <mxGeometry x="180" y="350" width="40" height="20" as="geometry"/>
                </mxCell>
                <mxCell id="35" value="&amp;lt;in&amp;gt;" style="text;html=1;align=center;verticalAlign=middle;resizable=0;points=[];autosize=1;strokeColor=none;fillColor=none;" vertex="1" parent="1">
                    <mxGeometry x="324" y="230" width="40" height="20" as="geometry"/>
                </mxCell>
                <mxCell id="36" value="&amp;lt;in&amp;gt;" style="text;html=1;align=center;verticalAlign=middle;resizable=0;points=[];autosize=1;strokeColor=none;fillColor=none;" vertex="1" parent="1">
                    <mxGeometry x="340" y="310" width="40" height="20" as="geometry"/>
                </mxCell>
                <mxCell id="37" value="&amp;lt;in&amp;gt;" style="text;html=1;align=center;verticalAlign=middle;resizable=0;points=[];autosize=1;strokeColor=none;fillColor=none;" vertex="1" parent="1">
                    <mxGeometry x="340" y="380" width="40" height="20" as="geometry"/>
                </mxCell>
                <mxCell id="38" value="&lt;span&gt;Usuario&lt;/span&gt;" style="text;html=1;align=center;verticalAlign=middle;resizable=0;points=[];autosize=1;strokeColor=none;fillColor=none;fontStyle=0" vertex="1" parent="1">
                    <mxGeometry x="-55" y="340" width="60" height="20" as="geometry"/>
                </mxCell>
            </root>
        </mxGraphModel>
    </diagram>
</mxfile>